<svg xmlns="http://www.w3.org/2000/svg" viewBox="0 0 128 128" width="128" height="128">
  <defs>
    <linearGradient id="bg" x1="0" y1="0" x2="1" y2="1">
      <stop offset="0" stop-color="#3d8be8"/>
      <stop offset="1" stop-color="#1e2126"/>
    </linearGradient>
  </defs>
  <rect x="4" y="4" width="120" height="120" rx="22" fill="url(#bg)"/>
  <rect x="34" y="34" width="60" height="60" rx="6" fill="#14161a" stroke="#e6e8eb" stroke-width="2"/>
  <g stroke="#e6e8eb" stroke-width="3" stroke-linecap="round">
    <line x1="34" y1="46" x2="20" y2="46"/>
    <line x1="34" y1="60" x2="20" y2="60"/>
    <line x1="34" y1="74" x2="20" y2="74"/>
    <line x1="34" y1="88" x2="20" y2="88"/>
    <line x1="94" y1="46" x2="108" y2="46"/>
    <line x1="94" y1="60" x2="108" y2="60"/>
    <line x1="94" y1="74" x2="108" y2="74"/>
    <line x1="94" y1="88" x2="108" y2="88"/>
    <line x1="46" y1="34" x2="46" y2="20"/>
    <line x1="60" y1="34" x2="60" y2="20"/>
    <line x1="74" y1="34" x2="74" y2="20"/>
    <line x1="46" y1="94" x2="46" y2="108"/>
    <line x1="60" y1="94" x2="60" y2="108"/>
    <line x1="74" y1="94" x2="74" y2="108"/>
  </g>
  <polygon points="68,44 50,66 60,66 56,84 78,58 66,58" fill="#f5c542"/>
</svg>
